<?xml version="1.0" encoding="utf-8"?>
<svg xmlns="http://www.w3.org/2000/svg" viewBox="0 0 500 500">
  <path style="fill: rgb(216, 216, 216); stroke: rgb(0, 0, 0);" d="M 35.455 287.216 C 35.455 289.104 35.054 282.892 35.455 282.09 C 37.062 278.876 36.287 274.49 37.164 270.984 C 40.303 258.424 42.832 244.816 44.853 231.685 C 48.683 206.786 54.809 181.312 62.794 157.358 C 66.243 147.011 69.317 132.894 77.317 124.893 C 79.397 122.814 84.227 122.255 85.861 120.621 C 91.297 153.238 101.452 185.264 106.365 218.015 C 108.059 229.311 110.454 240.786 111.491 252.189 C 111.867 256.324 111.661 260.049 112.345 264.149 C 112.722 266.414 111.491 273.28 111.491 270.984 C 111.491 247.022 121.101 223.633 127.723 200.929 C 131.612 187.595 135.011 174.139 138.829 160.775 C 142.963 146.305 150.883 132.021 153.353 117.204 C 154.08 112.843 155.124 102.618 157.625 100.117 C 158.734 99.008 160.937 116.805 161.042 118.058 C 162.157 131.438 164.915 145.723 167.022 159.066 C 172.732 195.226 178.129 233.596 178.129 270.13"/>
  <path style="fill: rgb(216, 216, 216); stroke: rgb(0, 0, 0);" d="M 293.464 122.33 C 276.477 122.33 259.678 131.604 244.767 138.562 C 243.338 139.229 231.49 142.384 231.097 144.543 C 230.077 150.153 234.988 158.466 230.243 161.629 C 226.385 157.771 223.362 153.917 218.282 151.377 C 184.412 134.441 177.254 191.809 204.613 200.929 C 224.385 207.519 227.68 170.842 227.68 159.921 C 227.68 155.355 223.969 146.251 228.534 146.251 C 229.424 146.251 230.199 156.015 230.243 156.503 C 230.574 160.146 230.661 197.73 243.058 191.531 C 249.394 188.363 253.149 177.864 255.019 171.881 C 261.155 152.244 264.177 130.078 262.708 109.515 C 262.559 107.433 260 85.594 255.873 85.594 C 253.266 85.594 253.23 110.407 253.31 112.078 C 254.296 132.785 256.675 155.092 264.416 174.444 C 266.898 180.649 270.914 196.021 280.649 193.24 C 287.995 191.141 291.258 180.693 293.464 174.444 C 301.527 151.599 301.902 123.321 300.298 99.263 C 300.201 97.809 295.172 71.07 295.172 71.07 C 295.172 71.07 295.127 97.497 295.172 98.409 C 296.124 117.438 293.984 152.752 308.842 167.61 C 315.832 174.6 320.77 167.769 325.074 160.775 C 331.9 149.682 336.711 136.509 340.452 124.039 C 341.221 121.475 341.896 114.346 344.724 112.932 C 347.847 111.371 351.668 121.694 352.413 123.184 C 357.219 132.797 363.676 163.867 378.043 147.106 C 380.967 143.694 380.972 141.735 382.314 137.708"/>
  <path style="fill: rgb(216, 216, 216); stroke: rgb(0, 0, 0);" d="M 219.137 250.48 C 212.7 263.354 215.719 286.441 215.719 300.886 C 215.719 301.764 214.865 317.972 214.865 317.972 C 214.865 317.972 215.695 302.082 215.719 301.74 C 216.242 294.424 213.856 262.518 220.845 259.023 C 223.312 257.79 226.933 264.15 227.68 265.004 C 230.788 268.556 245.103 287.048 251.601 283.799 C 264.994 277.103 248.822 245.57 257.582 236.811 C 258.585 235.808 263.29 243.866 263.562 244.5 C 267.172 252.922 276.835 270.297 286.629 255.606 C 293.71 244.984 290.614 219.011 276.377 215.452 C 270.463 213.974 262.64 224.782 266.979 229.122 C 268.577 230.72 277.409 214.421 278.94 212.889 C 282.286 209.543 290.074 210.745 294.318 209.472 C 301.481 207.323 308.565 203.202 314.822 199.22 C 318.948 196.594 322.382 194.585 326.783 192.385 C 329.442 191.056 336.975 187.348 335.326 189.822 C 331.452 195.634 324.886 198.742 321.657 205.2 C 315.626 217.262 321.337 234.895 323.365 247.063 C 324.422 253.4 325.955 258.836 327.637 265.004 C 328.637 268.669 327.513 278.797 330.2 276.11 C 335.25 271.06 336.661 254.768 339.598 247.917 C 342.157 241.946 345.216 235.826 348.141 229.976 C 351.448 223.363 349.72 226.489 353.267 220.578 C 366.478 198.56 350.721 205.145 345.578 222.287 C 342.381 232.943 342.076 244.244 345.578 254.752 C 346.955 258.884 348.062 264.817 353.267 265.858 C 362.239 267.653 372.13 248.974 369.499 241.082 C 368.226 237.262 353.718 240.647 357.539 239.374 C 371.255 234.801 383.503 216.757 390.858 205.2 C 390.866 205.187 401.63 180.592 395.129 183.842 C 373.565 194.624 407.289 211.449 409.653 219.724 C 415.228 239.237 380.879 253.672 366.936 256.46"/>
</svg>